<?xml version="1.0" encoding="UTF-8"?><svg id="Layer_2" xmlns="http://www.w3.org/2000/svg" viewBox="0 0 718.01 130.27"><defs><style>.cls-1,.cls-2,.cls-3,.cls-4,.cls-5{stroke:#fff;}.cls-1,.cls-2,.cls-3,.cls-6{fill:#fff;}.cls-1,.cls-2,.cls-4,.cls-5{stroke-linecap:round;stroke-linejoin:round;}.cls-1,.cls-4{stroke-width:1.21px;}.cls-2,.cls-5{stroke-width:1.23px;}.cls-3{stroke-miterlimit:10;stroke-width:.95px;}.cls-4,.cls-5{fill:none;}</style></defs><g id="Layer_3"><polygon class="cls-1" points="502.35 25.2 502.53 25.2 502.63 25.2 504.81 32.49 515.92 21.38 509.2 4.48 495.78 4.48 470.94 66.36 498.17 39.13 502.35 25.2"/><line class="cls-4" x1="525.83" y1="11.47" x2="504.81" y2="32.49"/><polygon class="cls-3" points="511.95 30.96 500.54 42.37 503.87 53.47 489.91 53.47 490.11 52.8 466.28 76.62 481.71 76.62 485.22 66.99 508.38 66.99 511.62 76.62 524.84 63.41 511.95 30.96"/><polygon class="cls-3" points="530.09 76.62 524.84 63.41 511.62 76.62 511.62 76.62 530.09 76.62"/><line class="cls-4" x1="493.79" y1="49.01" x2="460.4" y2="82.4"/><path class="cls-1" d="M561,44.03h7.94l21.55-21.55c0-.17.06-.35.06-.53,0-3.87-.99-7.92-3.97-10.99-4.86-5.4-10.09-6.48-21.35-6.48h-20.54v63.8l16.31-16.31v-7.94ZM561,19.43h6.04c2.61,0,7.21,0,7.21,5.05,0,5.31-4.86,5.31-7.21,5.31h-6.04v-10.36Z"/><path class="cls-3" d="M577.15,40.9l-9.15,9.15c1.89.68,3.47,2.1,3.47,5.12,0,6.39-6.31,6.39-8.47,6.39h-6.51l-14.96,14.96h18.31c3.03,0,5.54-.06,7.74-.22l20.19-20.19c-.01-2.88-.43-11.4-10.62-15.21Z"/><path class="cls-3" d="M567.58,76.3c5.99-.45,9.58-1.79,14.06-5.54,4.05-3.34,6.13-9.2,6.13-14.51,0-.04,0-.09,0-.13l-20.19,20.19Z"/><line class="cls-4" x1="601.51" y1="11.47" x2="568.94" y2="44.03"/><line class="cls-4" x1="560.35" y1="57.76" x2="535.84" y2="82.28"/><polygon class="cls-1" points="689.28 29.47 689.28 19.11 707.14 19.11 710 16.25 710 4.16 672.98 4.16 672.98 53.28 696.78 29.47 689.28 29.47"/><line class="cls-4" x1="717.4" y1="8.86" x2="707.14" y2="19.11"/><line class="cls-4" x1="670.65" y1="60.88" x2="649.56" y2="81.97"/><polygon class="cls-3" points="703.4 62.02 682.68 62.02 682.68 50.59 702.77 50.59 702.77 35.63 695.91 35.63 666.37 65.16 666.37 76.98 688.44 76.98 703.4 62.02 703.4 62.02"/><polygon class="cls-3" points="703.4 62.02 688.44 76.98 703.4 76.98 703.4 62.02"/><polygon class="cls-1" points="633.3 4.16 616.27 4.16 616.27 49.55 633.3 32.53 633.3 4.16"/><line class="cls-4" x1="647.38" y1="18.46" x2="633.3" y2="32.53"/><line class="cls-4" x1="613.22" y1="58.2" x2="589.16" y2="82.28"/><polygon class="cls-3" points="647.1 76.74 647.1 61.78 632.14 76.74 647.1 76.74"/><polygon class="cls-3" points="627.37 44.17 610.34 61.2 610.34 76.74 632.14 76.74 647.1 61.78 627.37 61.78 627.37 44.17"/><polygon class="cls-2" points="95.33 33.99 102.14 44.48 113.76 32.86 95.33 3.36 78.87 3.36 78.87 34.47 95.33 34.47 95.33 33.99"/><polygon class="cls-2" points="135.61 3.36 119.15 3.36 119.15 27.47 135.61 11.01 135.61 3.36"/><polygon class="cls-2" points="95.33 34.47 78.87 34.47 78.87 67.75 95.33 51.3 95.33 34.47"/><line class="cls-5" x1="146.02" y1=".61" x2="119.15" y2="27.46"/><line class="cls-5" x1="90.27" y1="62.76" x2="70.77" y2="82.26"/><polygon class="cls-3" points="90.27 76.5 90.27 62.92 76.69 76.5 90.27 76.5"/><polygon class="cls-3" points="130.55 22.65 114.09 39.1 114.09 47.32 110.93 42.26 99.36 53.83 114.09 76.5 130.55 60.04 130.55 22.65"/><polygon class="cls-3" points="114.09 76.5 130.55 76.5 130.55 60.04 114.09 76.5"/><path class="cls-1" d="M283.86,37.13c0-9.36,6.4-19.45,18.2-19.45,5.52,0,9.73,2.26,12.7,5.54l11.28-11.28c-6.14-5.65-14.44-9.2-24.07-9.2-18.65,0-29.01,12.52-32.52,21.17-1.98,4.86-2.61,9.82-2.61,14.23,0,8.56,3.58,16.97,9.73,23.28l11.55-11.55c-2.69-3.55-4.26-8.01-4.26-12.72Z"/><line class="cls-4" x1="335.14" y1="2.83" x2="314.75" y2="23.2"/><line class="cls-4" x1="285.77" y1="57.87" x2="261.5" y2="82.14"/><path class="cls-3" d="M332.17,42.39c0-8.45-3.08-16.34-8.33-22.47l-11.73,11.73c1.98,3.42,3.03,7.31,3.03,10.83,0,8.56-5.85,19.55-17.92,19.55-4.59,0-8.37-1.63-11.35-4.14l-11.34,11.34c5.86,4.74,13.44,7.76,22.32,7.76,2.01,0,3.95-.19,5.83-.48l29.08-29.08c.24-1.65.4-3.33.4-5.03Z"/><path class="cls-3" d="M331.77,47.42l-29.08,29.08c15.78-2.42,26.96-14.5,29.08-29.08Z"/><path class="cls-1" d="M372.57,35.02h-6.94v-15.85h6.31c3.69,0,11.26,0,11.26,7.84,0,1.2-.21,2.17-.5,3.04l14.24-14.23c-1.28-2.55-3.01-4.86-5.27-6.73-3.6-2.97-8.2-4.86-20.54-4.86h-21.8v59.2l29.21-29.21c-2.12.78-4.47.81-5.96.81Z"/><line class="cls-4" x1="411.27" y1="1.48" x2="384.65" y2="28.08"/><line class="cls-4" x1="356.32" y1="63.08" x2="337" y2="82.4"/><polygon class="cls-3" points="344.63 76.6 360.94 76.6 360.94 58.57 344.63 74.87 344.63 76.6"/><path class="cls-3" d="M394.81,32.46c0-2.3-.42-4.55-1.04-6.73l-29.97,29.98h4.53c2.95,0,5.39-.17,7.52-.48l18.59-18.59c.22-1.38.37-2.78.37-4.18Z"/><path class="cls-3" d="M375.85,55.22c5.37-.78,8.65-2.51,11.93-5.28,3.36-2.86,5.79-7.95,6.66-13.31l-18.59,18.59Z"/><path class="cls-1" d="M440.81,35.02h-6.94v-15.85h6.31c3.69,0,11.26,0,11.26,7.84,0,1.2-.21,2.17-.5,3.04l14.24-14.23c-1.28-2.55-3.01-4.86-5.27-6.73-3.6-2.97-8.2-4.86-20.54-4.86h-21.8v59.2l29.21-29.21c-2.12.78-4.47.81-5.96.81Z"/><line class="cls-4" x1="479.51" y1="1.48" x2="452.89" y2="28.08"/><line class="cls-4" x1="423.91" y1="62.93" x2="404.59" y2="82.25"/><polygon class="cls-3" points="411.93 76.6 428.24 76.6 428.24 58.57 411.93 74.87 411.93 76.6"/><path class="cls-3" d="M462.11,32.46c0-2.3-.42-4.55-1.04-6.73l-29.97,29.98h4.53c2.95,0,5.39-.17,7.52-.48l18.59-18.59c.22-1.38.37-2.78.37-4.18Z"/><path class="cls-3" d="M443.15,55.22c5.37-.78,8.65-2.51,11.93-5.28,3.36-2.86,5.79-7.95,6.66-13.31l-18.59,18.59Z"/><path class="cls-1" d="M25.48,43.72V3.45H8.46v40.27c0,8.98,1.02,13.68,5.4,19.04l12.39-12.39c-.67-2.29-.76-4.78-.76-6.65Z"/><polygon class="cls-1" points="59.63 3.45 42.6 3.45 42.6 34.02 59.63 16.99 59.63 3.45"/><line class="cls-4" x1="72.03" y1="4.6" x2="56.27" y2="20.36"/><line class="cls-4" x1="23.02" y1="59.85" x2=".61" y2="82.26"/><path class="cls-3" d="M54.51,49.58v-21l-17.03,17.03v3.97c0,5.31,0,12.7-8.47,12.7-2.78,0-4.63-.93-5.89-2.31l-11.56,11.56c5.49,4.68,13.2,5.71,17.64,5.71,1.12,0,2.2-.06,3.24-.16l21.79-21.79c.17-1.72.29-3.57.29-5.71Z"/><path class="cls-3" d="M54.22,55.29l-21.79,21.79c6.64-.64,11.67-3.23,15.41-7.05,3.42-3.5,5.64-7.46,6.38-14.74Z"/><polygon class="cls-1" points="244.4 19.24 254.6 19.24 257.47 16.37 257.47 4.28 214.22 4.28 214.22 19.24 227.37 19.24 227.37 46.46 244.4 29.44 244.4 19.24"/><line class="cls-4" x1="268.24" y1="5.6" x2="235.67" y2="38.16"/><line class="cls-4" x1="224.7" y1="54.1" x2="196.48" y2="82.31"/><polygon class="cls-3" points="238.13 40.67 221.1 57.7 221.1 76.46 238.13 59.44 238.13 40.67"/><polygon class="cls-3" points="221.1 76.46 238.13 76.46 238.13 59.44 221.1 76.46"/><path class="cls-1" d="M197.06,26.05c-.03-.55-.06-1.13-.1-1.71l-1.71,1.71h1.82Z"/><path class="cls-1" d="M152.75,48.58v2.17c0,2.97.65,6.42,2.23,9.68l11.84-11.85h-14.07Z"/><path class="cls-1" d="M170.67,22.18c0-3.16,2.88-5.23,5.86-5.23,5.22,0,5.76,4.24,6.13,6.48h9.29l6.62-6.62c-.6-2.08-1.63-4.26-3.48-6.53-4.33-5.13-11.44-7.57-18.02-7.57-11.17,0-23.33,7.12-23.33,19.63s11.62,17.22,16.31,19.1c1,.42,1.89.8,2.73,1.15l10.7-10.7c-11.07-5-12.8-5.89-12.8-9.73Z"/><line class="cls-4" x1="206.88" y1="8.53" x2="194.51" y2="20.89"/><line class="cls-4" x1="164.31" y1="56.2" x2="137.77" y2="82.73"/><path class="cls-3" d="M173.78,76.96c15.76-.94,20.86-11.09,20.86-20.37,0-.16-.02-.31-.03-.47l-20.83,20.83Z"/><path class="cls-3" d="M181.9,38.96l-10.55,10.55c4.79,2.22,6.35,3.69,6.35,6.91s-2.43,6.39-6.49,6.39c-1.89,0-5.76-1.03-6.72-6.44l-12.76,12.76c3.54,4.49,9.62,7.93,19.66,7.93.83,0,1.61-.05,2.39-.09l20.83-20.83c-.12-6.84-2.99-12.14-12.71-17.17Z"/><path class="cls-6" d="M590,103.79l.19-.83c.44-2.05-.05-3.76-1.8-3.76-1.95,0-3.17,1.51-3.46,3.07-1.46,6.88,14.05,3.51,11.37,16.25-1.61,7.42-6.64,10.74-14.64,10.74-7.51,0-11.17-2.59-9.61-9.81l.24-1.22h8.78l-.2.83c-.63,2.98.39,4.05,2.15,4.05,1.85,0,3.22-1.46,3.61-3.37,1.46-6.88-13.47-3.46-10.88-15.81,1.51-7.03,6.1-10.88,13.76-10.88s10.54,3.27,8.98,10.74h-8.49Z"/><path class="cls-6" d="M604.44,93.74h9.08l-2.83,13.37h.1l9.56-13.37h9.66l-12.05,15.23,5.71,19.62h-10.35l-2.73-12.15-2.54,2.93-1.95,9.22h-9.08l7.42-34.84Z"/><path class="cls-6" d="M643.47,93.05c9.27,0,11.37,5.07,8.59,18.1s-7.03,18.1-16.3,18.1-11.37-5.08-8.59-18.1,7.03-18.1,16.3-18.1ZM637.08,123.11c2.78,0,3.61-2.54,5.61-11.96s2.25-11.96-.54-11.96-3.61,2.54-5.61,11.96-2.25,11.96.54,11.96Z"/><path class="cls-6" d="M655.52,105.74c.83-3.56,1.9-6.44,3.95-8.49,2.1-2.05,5.17-3.22,9.86-3.22,9.08,0,10.25,4.25,9.12,9.42-.98,4.68-3.32,7.66-6.44,10.25l-6.49,5.22c-.93.78-2.29,1.81-2.83,2.83h11.91l-1.46,6.83h-22.74c1.03-4.78,3.17-9.17,8-13.22l7.32-6.15c2.15-1.76,3.12-3.07,3.66-5.66.63-2.93-.1-3.85-1.51-3.85-1.27,0-2.68.68-3.51,4.59l-.34,1.46h-8.49Z"/><path class="cls-6" d="M684.06,94.71h20.06l-1.46,6.83h-13.13l-1.66,5.81c2-1.56,4.39-2.54,6.98-2.54,5.56,0,7.86,3.61,6.29,10.98-1.9,8.98-5.61,13.47-14.2,13.47-8,0-10.54-3.66-9.22-9.91l.24-1.12h8.49l-.24,1.17c-.68,3.27.05,4.2,1.61,4.2,1.76,0,2.73-.78,4.15-7.42.83-3.86.2-5.22-1.46-5.22-1.51,0-2.68.88-3.12,2.93h-8.2l4.88-19.18Z"/><path class="cls-6" d="M553.01,98.95c.39,0,.83.02.83-.5,0-.42-.34-.48-.65-.48h-.65v.98h.46ZM552.54,100.61h-.41v-2.97h1.14c.67,0,.96.29.96.82s-.34.76-.69.83l.83,1.32h-.46l-.81-1.32h-.57v1.32ZM555.16,99.12c0-1.21-.9-2.17-2.1-2.17s-2.1.96-2.1,2.17.9,2.17,2.1,2.17,2.1-.96,2.1-2.17M555.57,99.12c0,1.38-1.12,2.5-2.5,2.5s-2.5-1.13-2.5-2.5,1.12-2.5,2.5-2.5,2.5,1.13,2.5,2.5"/><polygon class="cls-6" points="479.99 97.53 447.58 97.53 447.58 101.55 461.8 101.55 461.8 129.03 465.83 129.03 465.83 101.55 479.99 101.55 479.99 97.53"/><polygon class="cls-6" points="374.29 97.53 369.67 97.53 355.78 124.63 341.88 97.53 337.32 97.53 353.52 129.08 355.78 129.08 358.08 129.08 374.29 97.53"/><polygon class="cls-6" points="557.21 129.08 541.01 97.48 536.5 97.53 520.3 129.08 524.8 129.08 538.76 101.93 552.65 129.08 557.21 129.08"/><polygon class="cls-6" points="408.63 101.55 408.63 97.53 383.52 97.53 379.49 97.53 379.49 129.03 379.49 129.08 408.63 129.08 408.63 125.06 383.52 125.06 383.52 115.29 407.67 115.29 407.67 111.27 383.52 111.27 383.52 101.55 408.63 101.55"/><path class="cls-6" d="M430.36,130.27c5.16,0,9.79-2.02,13.13-5.26.1-.12.21-.23.31-.29l-3.18-2.72c-2.6,2.37-6.2,3.87-10.26,3.87-7.81,0-14.17-5.66-14.17-12.6s6.36-12.6,14.17-12.6c4.01,0,7.61,1.5,10.21,3.87l3.18-2.72c-3.33-3.41-8.07-5.55-13.39-5.55-10,0-18.13,7.63-18.13,16.99s8.13,16.99,18.13,16.99"/><path class="cls-6" d="M489.27,101.55h19.22c2.68,0,4.83,2.15,4.83,4.83s-2.04,4.72-4.56,4.88h-19.49v-9.71ZM517.4,106.38c0-4.94-3.97-8.85-8.91-8.85h-23.24v31.55h4.08v-13.79h16.48l7.08,13.79h4.56l-7.24-13.95c4.08-.8,7.19-4.4,7.19-8.75"/></g></svg>